<svg width="64" height="64" viewBox="0 0 64 64" fill="none" xmlns="http://www.w3.org/2000/svg">
<path d="M28.0487 3.21973H24.1537C23.6359 3.21973 23.2162 3.63948 23.2162 4.15723C23.2162 4.6751 23.6359 5.09473 24.1537 5.09473H28.0487C28.5666 5.09473 28.9862 4.6751 28.9862 4.15723C28.9862 3.63948 28.5666 3.21973 28.0487 3.21973Z" fill="url(#paint0_linear_53_178)"/>
<path d="M20.6775 3.23742C20.2261 3.33317 19.9239 3.71792 19.9239 4.15742C19.9239 4.67892 20.3504 5.09492 20.8614 5.09492C21.3703 5.09492 21.7989 4.68167 21.7989 4.15742C21.7989 3.55729 21.2436 3.12367 20.6775 3.23742Z" fill="url(#paint1_linear_53_178)"/>
<path d="M25.0494 54.54H23.6844C23.1665 54.54 22.7469 54.9597 22.7469 55.4775C22.7469 55.9954 23.1665 56.415 23.6844 56.415H25.0494C25.5673 56.415 25.9869 55.9954 25.9869 55.4775C25.9869 54.9597 25.5674 54.54 25.0494 54.54Z" fill="url(#paint2_linear_53_178)"/>
<path d="M56.5424 19.0691C56.3214 18.6009 55.7629 18.4004 55.2945 18.6215C54.8262 18.8425 54.6257 19.4011 54.8469 19.8694C55.171 20.5561 55.3352 21.2915 55.3352 22.055C55.3352 24.8843 53.0336 27.1859 50.2042 27.1859C47.2739 27.1859 44.8556 24.6956 45.0909 21.6514C45.0909 21.6509 45.0909 21.6504 45.0909 21.6497C45.2984 19.0094 47.5117 16.924 50.2042 16.924C50.8837 16.924 51.5447 17.0554 52.1687 17.3143C52.647 17.5128 53.1956 17.2859 53.394 16.8078C53.5925 16.3295 53.3656 15.7809 52.8875 15.5825C52.0345 15.2284 51.1316 15.0489 50.2041 15.0489C46.8251 15.0489 43.9974 17.4535 43.3415 20.6411H42.102V6.74837C42.1022 3.02737 39.075 0 35.3539 0H13.5382C9.81711 0 6.78961 3.02737 6.78961 6.74837V13.799C6.78961 14.3169 7.20936 14.7365 7.72711 14.7365C8.24499 14.7365 8.66461 14.3169 8.66461 13.799V6.74837C8.66474 4.06125 10.851 1.875 13.5384 1.875H35.354C38.0411 1.875 40.2272 4.06113 40.2272 6.74837V20.6414H38.8829V6.7485C38.8829 4.80275 37.2999 3.21937 35.354 3.21937H32.635C31.5841 3.21937 30.7286 4.07437 30.7279 5.126V5.74162C30.7279 6.0465 30.4701 6.30412 30.1652 6.30412H18.7271C18.4222 6.30412 18.1645 6.0465 18.1645 5.74162V5.12563C18.164 4.0745 17.3085 3.21937 16.2574 3.21937H13.5385C11.5926 3.21937 10.0095 4.8025 10.0095 6.7485V57.2515C10.0095 59.1972 11.5925 60.7804 13.5385 60.7804H35.3541C37.2999 60.7804 38.883 59.1974 38.883 57.2515V54.4933C38.883 53.9755 38.4634 53.5558 37.9455 53.5558C37.4277 53.5558 37.008 53.9755 37.008 54.4933V57.2515C37.008 58.1634 36.2661 58.9053 35.3542 58.9053H13.5384C12.6264 58.9053 11.8845 58.1632 11.8845 57.2515V6.7485C11.8845 5.8365 12.6265 5.0945 13.5384 5.0945H16.2572C16.275 5.0945 16.2894 5.10887 16.2894 5.12612V5.74175C16.2894 7.08575 17.3829 8.17937 18.7271 8.17937H30.1652C31.5094 8.17937 32.603 7.08587 32.603 5.74175V5.12675C32.603 5.109 32.6174 5.0945 32.6351 5.0945H35.3541C36.266 5.0945 37.0079 5.8365 37.0079 6.7485V20.6414H27.919L26.9454 16.0346C26.8539 15.6011 26.4712 15.291 26.0281 15.291H22.0332C21.5154 15.291 21.0957 15.7106 21.0957 16.2285C21.0957 16.7464 21.5154 17.166 22.0332 17.166H25.268C25.5529 18.5139 29.38 36.8867 29.8297 39.0149C29.9165 39.4541 30.3017 39.7706 30.7494 39.7706H31.0841C31.0252 39.9851 30.9911 40.2099 30.9911 40.4429C30.9911 41.8474 32.1339 42.9902 33.5385 42.9902C34.9431 42.9902 36.0859 41.8475 36.0859 40.4429C36.0859 40.2099 36.0517 39.9853 35.9929 39.7706H37.0079V50.1181C37.0079 50.636 37.4276 51.0556 37.9454 51.0556C38.4632 51.0556 38.8829 50.636 38.8829 50.1181V39.7706H40.2272V57.2515C40.2272 59.9387 38.041 62.1249 35.354 62.1249H13.5382C10.8509 62.1249 8.66474 59.9386 8.66474 57.2515V18.1742C8.66474 17.6564 8.24511 17.2367 7.72724 17.2367C7.20949 17.2367 6.78974 17.6564 6.78974 18.1742V57.2516C6.78974 60.9727 9.81724 64 13.5382 64H35.3539C39.075 64 42.1021 60.9726 42.1021 57.2516V39.7707H43.0312C42.9724 39.9852 42.9382 40.21 42.9382 40.443C42.9382 41.8475 44.081 42.9904 45.4856 42.9904C46.8901 42.9904 48.033 41.8476 48.033 40.443C48.033 39.0709 46.9416 37.9516 45.5817 37.9005C45.5501 37.8973 45.5181 37.8956 45.4857 37.8956C44.5085 37.8956 33.0612 37.8956 31.5196 37.8956L31.0835 35.689H46.8634C47.3064 35.689 47.689 35.3787 47.7806 34.9454L49.0449 28.9635C49.4222 29.0266 49.8091 29.0611 50.2041 29.0611C54.0672 29.0611 57.2102 25.9182 57.2102 22.0551C57.2104 21.0129 56.9856 20.0081 56.5424 19.0691ZM45.4857 39.7707C45.8565 39.7707 46.158 40.0723 46.158 40.443C46.158 40.8138 45.8565 41.1152 45.4857 41.1152C45.115 41.1152 44.8135 40.8138 44.8135 40.443C44.8135 40.0723 45.115 39.7707 45.4857 39.7707ZM33.5384 39.7707C33.9091 39.7707 34.2106 40.0723 34.2106 40.443C34.2106 40.8138 33.9091 41.1152 33.5384 41.1152C33.1676 41.1152 32.8661 40.8138 32.8661 40.443C32.8661 40.0723 33.1676 39.7707 33.5384 39.7707ZM46.1032 33.814H30.7027L28.315 22.5165C32.5679 22.5165 38.1922 22.5165 43.2131 22.5165C43.3782 25.0568 44.9094 27.3231 47.2461 28.4071L46.1032 33.814Z" fill="url(#paint3_linear_53_178)"/>
<path d="M52.2332 21.1177H51.1418V20.0264C51.1418 19.5085 50.7222 19.0889 50.2043 19.0889C49.6864 19.0889 49.2668 19.5085 49.2668 20.0264V21.1177H48.1753C47.6575 21.1177 47.2378 21.5374 47.2378 22.0552C47.2378 22.5731 47.6575 22.9927 48.1753 22.9927H49.2668V24.0842C49.2668 24.6021 49.6864 25.0217 50.2043 25.0217C50.7222 25.0217 51.1418 24.6021 51.1418 24.0842V22.9927H52.2332C52.751 22.9927 53.1707 22.5731 53.1707 22.0552C53.1707 21.5374 52.7512 21.1177 52.2332 21.1177Z" fill="url(#paint4_linear_53_178)"/>
<path d="M21.2656 20.6416H18.5286C18.0108 20.6416 17.5911 21.0612 17.5911 21.5791C17.5911 22.097 18.0108 22.5166 18.5286 22.5166H21.2656C21.7835 22.5166 22.2031 22.097 22.2031 21.5791C22.2031 21.0612 21.7835 20.6416 21.2656 20.6416Z" fill="url(#paint5_linear_53_178)"/>
<path d="M22.2355 25.0322H19.4985C18.9806 25.0322 18.561 25.4519 18.561 25.9697C18.561 26.4876 18.9806 26.9072 19.4985 26.9072H22.2355C22.7533 26.9072 23.173 26.4876 23.173 25.9697C23.173 25.452 22.7532 25.0322 22.2355 25.0322Z" fill="url(#paint6_linear_53_178)"/>
<path d="M24.1754 33.814H21.4384C20.9205 33.814 20.5009 34.2336 20.5009 34.7515C20.5009 35.2692 20.9205 35.689 21.4384 35.689H24.1754C24.6933 35.689 25.1129 35.2692 25.1129 34.7515C25.1129 34.2337 24.6933 33.814 24.1754 33.814Z" fill="url(#paint7_linear_53_178)"/>
<path d="M23.2054 29.4233H20.4684C19.9505 29.4233 19.5309 29.843 19.5309 30.3608C19.5309 30.8787 19.9505 31.2983 20.4684 31.2983H23.2054C23.7233 31.2983 24.1429 30.8787 24.1429 30.3608C24.1429 29.8431 23.7231 29.4233 23.2054 29.4233Z" fill="url(#paint8_linear_53_178)"/>
<path d="M28.3145 43.8462H20.036C18.3852 43.8462 17.0421 45.1892 17.0421 46.8401C17.0421 48.4908 18.3851 49.8339 20.036 49.8339H28.3145C29.9652 49.8339 31.3084 48.4909 31.3084 46.8401C31.3084 45.1892 29.9654 43.8462 28.3145 43.8462ZM28.3145 47.9588H20.036C19.4191 47.9588 18.9172 47.4571 18.9172 46.8401C18.9172 46.2232 19.4191 45.7213 20.036 45.7213H28.3145C28.9315 45.7213 29.4332 46.2232 29.4332 46.8401C29.4332 47.4569 28.9314 47.9588 28.3145 47.9588Z" fill="url(#paint9_linear_53_178)"/>
<defs>
<linearGradient id="paint0_linear_53_178" x1="28.9862" y1="4.04209" x2="23.2162" y2="4.04209" gradientUnits="userSpaceOnUse">
<stop stop-color="#9281CE"/>
<stop offset="1" stop-color="#68DBFF"/>
</linearGradient>
<linearGradient id="paint1_linear_53_178" x1="21.7989" y1="4.04191" x2="19.9239" y2="4.04191" gradientUnits="userSpaceOnUse">
<stop stop-color="#9281CE"/>
<stop offset="1" stop-color="#68DBFF"/>
</linearGradient>
<linearGradient id="paint2_linear_53_178" x1="25.9869" y1="55.3624" x2="22.7469" y2="55.3624" gradientUnits="userSpaceOnUse">
<stop stop-color="#9281CE"/>
<stop offset="1" stop-color="#68DBFF"/>
</linearGradient>
<linearGradient id="paint3_linear_53_178" x1="57.2102" y1="28.0702" x2="6.78961" y2="28.0702" gradientUnits="userSpaceOnUse">
<stop stop-color="#9281CE"/>
<stop offset="1" stop-color="#68DBFF"/>
</linearGradient>
<linearGradient id="paint4_linear_53_178" x1="53.1707" y1="21.691" x2="47.2378" y2="21.691" gradientUnits="userSpaceOnUse">
<stop stop-color="#9281CE"/>
<stop offset="1" stop-color="#68DBFF"/>
</linearGradient>
<linearGradient id="paint5_linear_53_178" x1="22.2031" y1="21.464" x2="17.5911" y2="21.464" gradientUnits="userSpaceOnUse">
<stop stop-color="#9281CE"/>
<stop offset="1" stop-color="#68DBFF"/>
</linearGradient>
<linearGradient id="paint6_linear_53_178" x1="23.173" y1="25.8546" x2="18.561" y2="25.8546" gradientUnits="userSpaceOnUse">
<stop stop-color="#9281CE"/>
<stop offset="1" stop-color="#68DBFF"/>
</linearGradient>
<linearGradient id="paint7_linear_53_178" x1="25.1129" y1="34.6363" x2="20.5009" y2="34.6363" gradientUnits="userSpaceOnUse">
<stop stop-color="#9281CE"/>
<stop offset="1" stop-color="#68DBFF"/>
</linearGradient>
<linearGradient id="paint8_linear_53_178" x1="24.1429" y1="30.2457" x2="19.5309" y2="30.2457" gradientUnits="userSpaceOnUse">
<stop stop-color="#9281CE"/>
<stop offset="1" stop-color="#68DBFF"/>
</linearGradient>
<linearGradient id="paint9_linear_53_178" x1="31.3084" y1="46.4724" x2="17.0421" y2="46.4724" gradientUnits="userSpaceOnUse">
<stop stop-color="#9281CE"/>
<stop offset="1" stop-color="#68DBFF"/>
</linearGradient>
</defs>
</svg>
