<svg width="64" height="64" viewBox="0 0 64 64" fill="none" xmlns="http://www.w3.org/2000/svg">
<g clip-path="url(#clip0_53_177)">
<path d="M28.5664 41.7441C28.0498 41.4812 27.4178 41.679 27.1433 42.1896C26.8687 42.7001 27.0521 43.3364 27.5563 43.6225L30.9333 45.4401V47.7558C30.9333 48.3449 31.4109 48.8225 32 48.8225C32.5891 48.8225 33.0667 48.3449 33.0667 47.7558V45.4401L36.4437 43.6267C36.7885 43.4513 37.0113 43.1029 37.0259 42.7163C37.0406 42.3297 36.8447 41.9655 36.5141 41.7646C36.1835 41.5636 35.7701 41.5574 35.4336 41.7483L32 43.5894L28.5664 41.7441Z" fill="url(#paint0_linear_53_177)"/>
<path d="M7.4667 4.2666H5.33336C4.74426 4.2666 4.26669 4.74416 4.26669 5.33327C4.26669 5.92237 4.74426 6.39994 5.33336 6.39994H7.4667C8.0558 6.39994 8.53336 5.92237 8.53336 5.33327C8.53336 4.74416 8.0558 4.2666 7.4667 4.2666Z" fill="url(#paint1_linear_53_177)"/>
<path d="M11.7333 6.39994H20.2666C20.8557 6.39994 21.3333 5.92237 21.3333 5.33327C21.3333 4.74416 20.8557 4.2666 20.2666 4.2666H11.7333C11.1442 4.2666 10.6666 4.74416 10.6666 5.33327C10.6666 5.92237 11.1442 6.39994 11.7333 6.39994Z" fill="url(#paint2_linear_53_177)"/>
<path d="M7.4667 8.5332H5.33336C4.74426 8.5332 4.26669 9.01077 4.26669 9.59987C4.26669 10.189 4.74426 10.6665 5.33336 10.6665H7.4667C8.0558 10.6665 8.53336 10.189 8.53336 9.59987C8.53336 9.01077 8.0558 8.5332 7.4667 8.5332Z" fill="url(#paint3_linear_53_177)"/>
<path d="M11.7333 10.6665H20.2666C20.8557 10.6665 21.3333 10.189 21.3333 9.59987C21.3333 9.01077 20.8557 8.5332 20.2666 8.5332H11.7333C11.1442 8.5332 10.6666 9.01077 10.6666 9.59987C10.6666 10.189 11.1442 10.6665 11.7333 10.6665Z" fill="url(#paint4_linear_53_177)"/>
<path d="M7.4667 12.7998H5.33336C4.74426 12.7998 4.26669 13.2774 4.26669 13.8665C4.26669 14.4556 4.74426 14.9331 5.33336 14.9331H7.4667C8.0558 14.9331 8.53336 14.4556 8.53336 13.8665C8.53336 13.2774 8.0558 12.7998 7.4667 12.7998Z" fill="url(#paint5_linear_53_177)"/>
<path d="M20.2666 12.7998H11.7333C11.1442 12.7998 10.6666 13.2774 10.6666 13.8665C10.6666 14.4556 11.1442 14.9331 11.7333 14.9331H20.2666C20.8557 14.9331 21.3333 14.4556 21.3333 13.8665C21.3333 13.2774 20.8557 12.7998 20.2666 12.7998Z" fill="url(#paint6_linear_53_177)"/>
<path d="M59.7333 0H42.6667C40.3103 0 38.4 1.91025 38.4 4.26667V8.53333H34.1333C32.366 8.53333 30.9333 9.96602 30.9333 11.7333V25.6H13.8667V19.2H21.3333C23.6897 19.2 25.6 17.2897 25.6 14.9333V4.26667C25.6 1.91025 23.6897 0 21.3333 0H4.26667C1.91025 0 0 1.91025 0 4.26667V14.9333C0 17.2897 1.91025 19.2 4.26667 19.2H11.7333V25.6H4.26667C1.91025 25.6 0 27.5103 0 29.8667V59.7333C0 62.0898 1.91025 64 4.26667 64H59.7333C62.0898 64 64 62.0898 64 59.7333V29.8667C64 27.5103 62.0898 25.6 59.7333 25.6H33.0667V11.7333C33.0667 11.1442 33.5442 10.6667 34.1333 10.6667H38.4V14.9333C38.4 17.2897 40.3103 19.2 42.6667 19.2H59.7333C62.0898 19.2 64 17.2897 64 14.9333V4.26667C64 1.91025 62.0898 0 59.7333 0ZM33.0667 32.8011L42.5483 37.9072L40.3563 39.0805C39.8373 39.3595 39.6427 40.0063 39.9216 40.5253C40.2005 41.0443 40.8474 41.2389 41.3664 40.96L43.7333 39.6917V51.0549L33.0667 56.7989V53.6619C33.0667 53.0728 32.5891 52.5952 32 52.5952C31.4109 52.5952 30.9333 53.0728 30.9333 53.6619V56.7989L20.2667 51.0549V48H21.5296C22.0491 49.4694 23.5516 50.3508 25.0877 50.0873C26.6238 49.8237 27.7466 48.4919 27.7466 46.9333C27.7466 45.3748 26.6238 44.043 25.0877 43.7794C23.5516 43.5159 22.0491 44.3973 21.5296 45.8667H20.2667V39.6917L22.6336 40.96C23.1526 41.2389 23.7995 41.0443 24.0784 40.5253C24.3573 40.0063 24.1627 39.3595 23.6437 39.0805L21.4517 37.9072L30.9333 32.8011V34.3296C29.464 34.8491 28.5825 36.3516 28.8461 37.8877C29.1096 39.4238 30.4415 40.5466 32 40.5466C33.5585 40.5466 34.8904 39.4238 35.1539 37.8877C35.4175 36.3516 34.5361 34.8491 33.0667 34.3296V32.8011ZM23.4667 46.9333C23.4667 46.3442 23.9442 45.8667 24.5333 45.8667C25.1224 45.8667 25.6 46.3442 25.6 46.9333C25.6 47.5224 25.1224 48 24.5333 48C23.9442 48 23.4667 47.5224 23.4667 46.9333ZM32 36.2667C32.5891 36.2667 33.0667 36.7442 33.0667 37.3333C33.0667 37.9224 32.5891 38.4 32 38.4C31.4109 38.4 30.9333 37.9224 30.9333 37.3333C30.9333 36.7442 31.4109 36.2667 32 36.2667ZM30.9333 27.7333V30.3787L18.6944 36.9685C18.6795 36.976 18.6635 36.9792 18.6496 36.9877C18.3272 37.1804 18.1299 37.5284 18.1301 37.904V45.8667H14.9333C14.3442 45.8667 13.8667 45.3891 13.8667 44.8V27.7333H30.9333ZM4.26667 17.0667C3.08846 17.0667 2.13333 16.1115 2.13333 14.9333V4.26667C2.13333 3.08846 3.08846 2.13333 4.26667 2.13333H21.3333C22.5115 2.13333 23.4667 3.08846 23.4667 4.26667V14.9333C23.4667 16.1115 22.5115 17.0667 21.3333 17.0667H4.26667ZM2.13333 36.5952L3.59253 37.9627C4.02207 38.3668 4.26595 38.9302 4.26667 39.52V50.08C4.26668 50.6696 4.02266 51.233 3.59253 51.6363L2.13333 53.0037V36.5952ZM58.0736 27.7333H59.7333C60.9115 27.7333 61.8667 28.6885 61.8667 29.8667V59.7333C61.8667 60.9115 60.9115 61.8667 59.7333 61.8667H58.0736C58.4575 61.221 58.6622 60.4845 58.6667 59.7333V29.8667C58.6622 29.1155 58.4575 28.379 58.0736 27.7333ZM54.4 27.7333C55.5782 27.7333 56.5333 28.6885 56.5333 29.8667V59.7333C56.5333 60.9115 55.5782 61.8667 54.4 61.8667H4.26667C3.08846 61.8667 2.13333 60.9115 2.13333 59.7333V55.9285L5.05067 53.1936C5.91019 52.386 6.39838 51.2594 6.4 50.08V39.52C6.39838 38.3406 5.91019 37.2141 5.05067 36.4064L2.13333 33.6715V29.8667C2.13333 28.6885 3.08846 27.7333 4.26667 27.7333H11.7333V44.8C11.7333 46.5673 13.166 48 14.9333 48H18.1333V51.6917C18.1331 52.0844 18.3487 52.4454 18.6944 52.6315L31.4944 59.5232C31.8101 59.6931 32.19 59.6931 32.5056 59.5232L45.3056 52.6315C45.6513 52.4454 45.8669 52.0844 45.8667 51.6917V37.9083C45.8669 37.5327 45.6696 37.1847 45.3472 36.992C45.3333 36.9835 45.3173 36.9803 45.3024 36.9728L33.0667 30.3787V27.7333H54.4ZM61.8667 14.9333C61.8667 16.1115 60.9115 17.0667 59.7333 17.0667H42.6667C41.4885 17.0667 40.5333 16.1115 40.5333 14.9333V4.26667C40.5333 3.08846 41.4885 2.13333 42.6667 2.13333H59.7333C60.9115 2.13333 61.8667 3.08846 61.8667 4.26667V14.9333Z" fill="url(#paint7_linear_53_177)"/>
<path d="M45.8666 4.2666H43.7333C43.1442 4.2666 42.6666 4.74416 42.6666 5.33327C42.6666 5.92237 43.1442 6.39994 43.7333 6.39994H45.8666C46.4557 6.39994 46.9333 5.92237 46.9333 5.33327C46.9333 4.74416 46.4557 4.2666 45.8666 4.2666Z" fill="url(#paint8_linear_53_177)"/>
<path d="M58.6666 4.2666H50.1333C49.5442 4.2666 49.0667 4.74416 49.0667 5.33327C49.0667 5.92237 49.5442 6.39994 50.1333 6.39994H58.6666C59.2557 6.39994 59.7333 5.92237 59.7333 5.33327C59.7333 4.74416 59.2557 4.2666 58.6666 4.2666Z" fill="url(#paint9_linear_53_177)"/>
<path d="M45.8666 8.5332H43.7333C43.1442 8.5332 42.6666 9.01077 42.6666 9.59987C42.6666 10.189 43.1442 10.6665 43.7333 10.6665H45.8666C46.4557 10.6665 46.9333 10.189 46.9333 9.59987C46.9333 9.01077 46.4557 8.5332 45.8666 8.5332Z" fill="url(#paint10_linear_53_177)"/>
<path d="M58.6666 8.5332H50.1333C49.5442 8.5332 49.0667 9.01077 49.0667 9.59987C49.0667 10.189 49.5442 10.6665 50.1333 10.6665H58.6666C59.2557 10.6665 59.7333 10.189 59.7333 9.59987C59.7333 9.01077 59.2557 8.5332 58.6666 8.5332Z" fill="url(#paint11_linear_53_177)"/>
<path d="M45.8666 12.7998H43.7333C43.1442 12.7998 42.6666 13.2774 42.6666 13.8665C42.6666 14.4556 43.1442 14.9331 43.7333 14.9331H45.8666C46.4557 14.9331 46.9333 14.4556 46.9333 13.8665C46.9333 13.2774 46.4557 12.7998 45.8666 12.7998Z" fill="url(#paint12_linear_53_177)"/>
<path d="M58.6666 12.7998H50.1333C49.5442 12.7998 49.0667 13.2774 49.0667 13.8665C49.0667 14.4556 49.5442 14.9331 50.1333 14.9331H58.6666C59.2557 14.9331 59.7333 14.4556 59.7333 13.8665C59.7333 13.2774 59.2557 12.7998 58.6666 12.7998Z" fill="url(#paint13_linear_53_177)"/>
<path d="M44.8 57.6001H42.6666C42.0775 57.6001 41.6 58.0777 41.6 58.6668C41.6 59.2559 42.0775 59.7334 42.6666 59.7334H44.8C45.3891 59.7334 45.8666 59.2559 45.8666 58.6668C45.8666 58.0777 45.3891 57.6001 44.8 57.6001Z" fill="url(#paint14_linear_53_177)"/>
<path d="M53.3333 57.6001H49.0667C48.4776 57.6001 48 58.0777 48 58.6668C48 59.2559 48.4776 59.7334 49.0667 59.7334H53.3333C53.9224 59.7334 54.4 59.2559 54.4 58.6668C54.4 58.0777 53.9224 57.6001 53.3333 57.6001Z" fill="url(#paint15_linear_53_177)"/>
<path d="M48 55.4668H53.3333C53.9225 55.4668 54.4 54.9893 54.4 54.4002C54.4 53.8111 53.9225 53.3335 53.3333 53.3335H48C47.4109 53.3335 46.9333 53.8111 46.9333 54.4002C46.9333 54.9893 47.4109 55.4668 48 55.4668Z" fill="url(#paint16_linear_53_177)"/>
<path d="M11.7334 51.2002H9.60005C9.01095 51.2002 8.53339 51.6778 8.53339 52.2669V53.3335C8.53339 53.9226 9.01095 54.4002 9.60005 54.4002C10.1892 54.4002 10.6667 53.9226 10.6667 53.3335H11.7334C12.3225 53.3335 12.8001 52.856 12.8001 52.2669C12.8001 51.6778 12.3225 51.2002 11.7334 51.2002Z" fill="url(#paint17_linear_53_177)"/>
<path d="M11.7334 57.5999H10.6667C10.6667 57.0108 10.1892 56.5332 9.60005 56.5332C9.01095 56.5332 8.53339 57.0108 8.53339 57.5999V58.6665C8.53339 59.2556 9.01095 59.7332 9.60005 59.7332H11.7334C12.3225 59.7332 12.8001 59.2556 12.8001 58.6665C12.8001 58.0774 12.3225 57.5999 11.7334 57.5999Z" fill="url(#paint18_linear_53_177)"/>
<path d="M19.2 56.5332C18.6109 56.5332 18.1333 57.0108 18.1333 57.5999H17.0667C16.4776 57.5999 16 58.0774 16 58.6665C16 59.2556 16.4776 59.7332 17.0667 59.7332H19.2C19.7891 59.7332 20.2667 59.2556 20.2667 58.6665V57.5999C20.2667 57.0108 19.7891 56.5332 19.2 56.5332Z" fill="url(#paint19_linear_53_177)"/>
</g>
<defs>
<linearGradient id="paint0_linear_53_177" x1="37.0267" y1="44.773" x2="27.0159" y2="44.773" gradientUnits="userSpaceOnUse">
<stop stop-color="#9281CE"/>
<stop offset="1" stop-color="#68DBFF"/>
</linearGradient>
<linearGradient id="paint1_linear_53_177" x1="8.53336" y1="5.20227" x2="4.26669" y2="5.20227" gradientUnits="userSpaceOnUse">
<stop stop-color="#9281CE"/>
<stop offset="1" stop-color="#68DBFF"/>
</linearGradient>
<linearGradient id="paint2_linear_53_177" x1="21.3333" y1="5.20227" x2="10.6666" y2="5.20227" gradientUnits="userSpaceOnUse">
<stop stop-color="#9281CE"/>
<stop offset="1" stop-color="#68DBFF"/>
</linearGradient>
<linearGradient id="paint3_linear_53_177" x1="8.53336" y1="9.46888" x2="4.26669" y2="9.46888" gradientUnits="userSpaceOnUse">
<stop stop-color="#9281CE"/>
<stop offset="1" stop-color="#68DBFF"/>
</linearGradient>
<linearGradient id="paint4_linear_53_177" x1="21.3333" y1="9.46888" x2="10.6666" y2="9.46888" gradientUnits="userSpaceOnUse">
<stop stop-color="#9281CE"/>
<stop offset="1" stop-color="#68DBFF"/>
</linearGradient>
<linearGradient id="paint5_linear_53_177" x1="8.53336" y1="13.7355" x2="4.26669" y2="13.7355" gradientUnits="userSpaceOnUse">
<stop stop-color="#9281CE"/>
<stop offset="1" stop-color="#68DBFF"/>
</linearGradient>
<linearGradient id="paint6_linear_53_177" x1="21.3333" y1="13.7355" x2="10.6666" y2="13.7355" gradientUnits="userSpaceOnUse">
<stop stop-color="#9281CE"/>
<stop offset="1" stop-color="#68DBFF"/>
</linearGradient>
<linearGradient id="paint7_linear_53_177" x1="64" y1="28.0702" x2="-1.81162e-08" y2="28.0702" gradientUnits="userSpaceOnUse">
<stop stop-color="#9281CE"/>
<stop offset="1" stop-color="#68DBFF"/>
</linearGradient>
<linearGradient id="paint8_linear_53_177" x1="46.9333" y1="5.20227" x2="42.6666" y2="5.20227" gradientUnits="userSpaceOnUse">
<stop stop-color="#9281CE"/>
<stop offset="1" stop-color="#68DBFF"/>
</linearGradient>
<linearGradient id="paint9_linear_53_177" x1="59.7333" y1="5.20227" x2="49.0667" y2="5.20227" gradientUnits="userSpaceOnUse">
<stop stop-color="#9281CE"/>
<stop offset="1" stop-color="#68DBFF"/>
</linearGradient>
<linearGradient id="paint10_linear_53_177" x1="46.9333" y1="9.46888" x2="42.6666" y2="9.46888" gradientUnits="userSpaceOnUse">
<stop stop-color="#9281CE"/>
<stop offset="1" stop-color="#68DBFF"/>
</linearGradient>
<linearGradient id="paint11_linear_53_177" x1="59.7333" y1="9.46888" x2="49.0667" y2="9.46888" gradientUnits="userSpaceOnUse">
<stop stop-color="#9281CE"/>
<stop offset="1" stop-color="#68DBFF"/>
</linearGradient>
<linearGradient id="paint12_linear_53_177" x1="46.9333" y1="13.7355" x2="42.6666" y2="13.7355" gradientUnits="userSpaceOnUse">
<stop stop-color="#9281CE"/>
<stop offset="1" stop-color="#68DBFF"/>
</linearGradient>
<linearGradient id="paint13_linear_53_177" x1="59.7333" y1="13.7355" x2="49.0667" y2="13.7355" gradientUnits="userSpaceOnUse">
<stop stop-color="#9281CE"/>
<stop offset="1" stop-color="#68DBFF"/>
</linearGradient>
<linearGradient id="paint14_linear_53_177" x1="45.8666" y1="58.5358" x2="41.6" y2="58.5358" gradientUnits="userSpaceOnUse">
<stop stop-color="#9281CE"/>
<stop offset="1" stop-color="#68DBFF"/>
</linearGradient>
<linearGradient id="paint15_linear_53_177" x1="54.4" y1="58.5358" x2="48" y2="58.5358" gradientUnits="userSpaceOnUse">
<stop stop-color="#9281CE"/>
<stop offset="1" stop-color="#68DBFF"/>
</linearGradient>
<linearGradient id="paint16_linear_53_177" x1="54.4" y1="54.2692" x2="46.9333" y2="54.2692" gradientUnits="userSpaceOnUse">
<stop stop-color="#9281CE"/>
<stop offset="1" stop-color="#68DBFF"/>
</linearGradient>
<linearGradient id="paint17_linear_53_177" x1="12.8001" y1="52.6037" x2="8.53339" y2="52.6037" gradientUnits="userSpaceOnUse">
<stop stop-color="#9281CE"/>
<stop offset="1" stop-color="#68DBFF"/>
</linearGradient>
<linearGradient id="paint18_linear_53_177" x1="12.8001" y1="57.9367" x2="8.53339" y2="57.9367" gradientUnits="userSpaceOnUse">
<stop stop-color="#9281CE"/>
<stop offset="1" stop-color="#68DBFF"/>
</linearGradient>
<linearGradient id="paint19_linear_53_177" x1="20.2667" y1="57.9367" x2="16" y2="57.9367" gradientUnits="userSpaceOnUse">
<stop stop-color="#9281CE"/>
<stop offset="1" stop-color="#68DBFF"/>
</linearGradient>
<clipPath id="clip0_53_177">
<rect width="64" height="64" fill="white"/>
</clipPath>
</defs>
</svg>
