<svg width="64" height="64" viewBox="0 0 64 64" fill="none" xmlns="http://www.w3.org/2000/svg">
<g clip-path="url(#clip0_53_176)">
<path d="M55.6715 43.0134C54.6141 41.4486 52.8432 40.5175 50.9547 40.5334H47.3878L59.5595 21.9169C59.7748 21.5979 59.8016 21.1876 59.6296 20.8433C59.4576 20.499 59.1134 20.2741 58.729 20.2548C58.3446 20.2354 57.9796 20.4247 57.7739 20.7499L39.9563 48.0001H24.0438L6.22617 20.7499C6.02045 20.4247 5.65545 20.2354 5.27106 20.2548C4.88668 20.2741 4.54252 20.499 4.37049 20.8433C4.19847 21.1876 4.22525 21.5979 4.44057 21.9169L16.6123 40.5334H13.0454C11.1553 40.5177 9.38324 41.4506 8.32644 43.0177L0.533371 54.8044C0.183718 55.313 -0.00235098 55.9162 3.79777e-05 56.5334V60.8001C3.79777e-05 62.5674 1.43273 64.0001 3.20004 64.0001H60.8C62.5674 64.0001 64 62.5674 64 60.8001V56.5334C64.0013 55.9197 63.8152 55.3202 63.4667 54.815L55.6715 43.0134ZM16.6976 42.6667H18.0075L22.5739 49.6502C22.7709 49.9517 23.1066 50.1334 23.4667 50.1334H40.5334C40.8935 50.1334 41.2292 49.9517 41.4262 49.6502L45.9926 42.6667H48.368L49.3814 44.9867L49.055 45.1499C47.6364 45.8708 46.9567 47.5193 47.455 49.0305L48.5952 52.4502C48.9657 53.5794 49.9343 54.4082 51.1072 54.5996L53.7792 55.0476L54.9003 57.6001H10.1643L16.6976 42.6667ZM2.3083 55.9905L10.1035 44.1974C10.7657 43.2265 11.8702 42.6518 13.0454 42.6667H14.3691L7.83577 57.6001H3.32804C2.70428 57.6335 2.1706 57.157 2.13337 56.5334C2.13423 56.3387 2.19534 56.1491 2.3083 55.9905V55.9905ZM61.8667 60.8001C61.8667 61.3892 61.3891 61.8668 60.8 61.8668H3.20004C2.61093 61.8668 2.13337 61.3892 2.13337 60.8001V59.5116C2.51512 59.6564 2.91975 59.7315 3.32804 59.7334H60.672C61.0803 59.7315 61.485 59.6564 61.8667 59.5116V60.8001ZM60.672 57.6001H57.231L55.4944 53.6417C55.3249 53.2531 54.9413 53.0019 54.5174 53.0017L51.4582 52.4929C51.0693 52.4277 50.7481 52.1532 50.623 51.7793L49.4806 48.3521C49.3092 47.8472 49.5369 47.2933 50.0139 47.055L50.9419 46.591C51.2702 46.542 51.557 46.343 51.7177 46.0527C51.8785 45.7623 51.8949 45.4136 51.7622 45.1094L50.6955 42.6667H50.9536C52.1272 42.6516 53.2306 43.2245 53.8934 44.1931L61.6992 56.0001C61.8083 56.1565 61.8668 56.3427 61.8667 56.5334C61.8295 57.157 61.2958 57.6335 60.672 57.6001V57.6001Z" fill="url(#paint0_linear_53_176)"/>
<path d="M30.9334 19.2002C30.9334 19.7893 31.411 20.2668 32.0001 20.2668C32.5892 20.2668 33.0667 19.7893 33.0667 19.2002V16.6402L36.7723 14.6487C37.2913 14.3695 37.4857 13.7224 37.2065 13.2034C36.9272 12.6844 36.2801 12.49 35.7611 12.7692L32.0001 14.7895L28.239 12.7628C27.72 12.4836 27.0729 12.678 26.7937 13.197C26.5144 13.716 26.7088 14.3631 27.2278 14.6423L30.9334 16.6402V19.2002Z" fill="url(#paint1_linear_53_176)"/>
<path d="M17.6278 24.4054L31.4945 31.8721C31.8101 32.042 32.19 32.042 32.5057 31.8721L46.3723 24.4054C46.7177 24.2195 46.9332 23.859 46.9334 23.4667V8.53339C46.9332 8.15819 46.736 7.81067 46.4139 7.61819C46.4001 7.60966 46.3841 7.60646 46.3691 7.59899L32.5025 0.132323C32.1868 -0.0375972 31.8069 -0.0375972 31.4913 0.132323L17.6246 7.59899C17.6097 7.60646 17.5937 7.60966 17.5798 7.61819C17.2602 7.81225 17.0655 8.15948 17.0667 8.53339V23.4667C17.0669 23.859 17.2824 24.2195 17.6278 24.4054ZM19.2001 10.3179L21.8945 11.7665C22.4135 12.0457 23.0606 11.8513 23.3398 11.3323C23.619 10.8133 23.4247 10.1662 22.9057 9.88699L20.3851 8.53339L32.0001 2.27846L43.615 8.53339L41.0945 9.88806C40.5755 10.1673 40.3811 10.8144 40.6603 11.3334C40.9396 11.8524 41.5867 12.0468 42.1057 11.7675L44.8001 10.3179V22.8267L33.0667 29.1478V25.6001C33.0667 25.011 32.5892 24.5334 32.0001 24.5334C31.411 24.5334 30.9334 25.011 30.9334 25.6001V29.1478L19.2001 22.8267V10.3179Z" fill="url(#paint2_linear_53_176)"/>
</g>
<defs>
<linearGradient id="paint0_linear_53_176" x1="64" y1="39.4406" x2="1.52407e-05" y2="39.4406" gradientUnits="userSpaceOnUse">
<stop stop-color="#9281CE"/>
<stop offset="1" stop-color="#68DBFF"/>
</linearGradient>
<linearGradient id="paint1_linear_53_176" x1="37.3341" y1="15.9824" x2="26.6661" y2="15.9824" gradientUnits="userSpaceOnUse">
<stop stop-color="#9281CE"/>
<stop offset="1" stop-color="#68DBFF"/>
</linearGradient>
<linearGradient id="paint2_linear_53_176" x1="46.9334" y1="14.0376" x2="17.0667" y2="14.0376" gradientUnits="userSpaceOnUse">
<stop stop-color="#9281CE"/>
<stop offset="1" stop-color="#68DBFF"/>
</linearGradient>
<clipPath id="clip0_53_176">
<rect width="64" height="64" fill="white"/>
</clipPath>
</defs>
</svg>
