<svg width="64" height="64" viewBox="0 0 64 64" fill="none" xmlns="http://www.w3.org/2000/svg">
<path d="M61.0585 35.0706H59.992V35.0061C59.992 31.0916 57.4657 27.758 53.9589 26.5441C53.7326 24.0253 51.611 22.0443 49.0344 22.0443H36.9456V5.95171C36.9456 4.88221 36.0756 4.01221 35.0061 4.01221H28.994C27.9245 4.01221 27.0545 4.88221 27.0545 5.95171V18.9738C27.0545 19.4917 27.4743 19.9113 27.992 19.9113C28.5098 19.9113 28.9295 19.4917 28.9295 18.9738V5.95171C28.9295 5.91608 28.9584 5.88721 28.994 5.88721H35.0061C35.0418 5.88721 35.0706 5.91608 35.0706 5.95171V22.0445H14.9657C12.3891 22.0445 10.2675 24.0255 10.0413 26.5442C6.53438 27.7581 4.00812 31.0916 4.00812 35.0062V35.0707H2.94163C1.31963 35.0706 0 36.3902 0 38.0122V42.0202C0 43.6422 1.31962 44.9617 2.9415 44.9617H4.008V49.0343C4.008 53.9713 8.02463 57.988 12.9616 57.988H51.0382C55.9752 57.988 59.9919 53.9713 59.9919 49.0343V44.9617H61.0584C62.6804 44.9617 63.9999 43.6422 63.9999 42.0202V38.0122C64 36.3902 62.6804 35.0706 61.0585 35.0706ZM2.9415 43.0867C2.35337 43.0867 1.875 42.6083 1.875 42.0202V38.0122C1.875 37.4241 2.3535 36.9457 2.9415 36.9457H4.008V43.0868L2.9415 43.0867ZM58.117 49.0343C58.117 52.9375 54.9415 56.113 51.0384 56.113H12.9616C9.0585 56.113 5.883 52.9375 5.883 49.0343V35.0061C5.883 31.103 9.0585 27.9275 12.9616 27.9275H44.0244C44.5421 27.9275 44.9619 27.5077 44.9619 26.99C44.9619 26.4722 44.5421 26.0525 44.0244 26.0525H12.9616C12.6459 26.0525 12.334 26.0693 12.0267 26.1015C12.4087 24.8403 13.5815 23.9193 14.9657 23.9193H49.0344C50.4186 23.9193 51.5914 24.8402 51.9734 26.1015C51.666 26.0695 51.3541 26.0525 51.0385 26.0525H48.0327C47.515 26.0525 47.0952 26.4722 47.0952 26.99C47.0952 27.5077 47.515 27.9275 48.0327 27.9275H51.0385C54.9416 27.9275 58.1171 31.103 58.1171 35.0061L58.117 49.0343ZM62.125 42.0202C62.125 42.6083 61.6465 43.0867 61.0585 43.0867H59.992V36.9456H61.0585C61.6466 36.9456 62.125 37.4241 62.125 38.0121V42.0202Z" fill="url(#paint0_linear_52_182)"/>
<path d="M11.9596 48.0967C10.3376 48.0967 9.01813 49.4163 9.01813 51.0382C9.01813 52.6601 10.3378 53.9797 11.9596 53.9797C13.5815 53.9797 14.9011 52.6601 14.9011 51.0382C14.9011 49.4163 13.5816 48.0967 11.9596 48.0967ZM11.9596 52.1048C11.3715 52.1048 10.8931 51.6263 10.8931 51.0383C10.8931 50.4502 11.3716 49.9718 11.9596 49.9718C12.5476 49.9718 13.0261 50.4502 13.0261 51.0383C13.0261 51.6263 12.5478 52.1048 11.9596 52.1048Z" fill="url(#paint1_linear_52_182)"/>
<path d="M11.9596 30.0605C10.3376 30.0605 9.01813 31.3802 9.01813 33.002C9.01813 34.6239 10.3378 35.9435 11.9596 35.9435C13.5815 35.9435 14.9011 34.6239 14.9011 33.002C14.9011 31.3802 13.5816 30.0605 11.9596 30.0605ZM11.9596 34.0685C11.3715 34.0685 10.8931 33.59 10.8931 33.002C10.8931 32.414 11.3716 31.9355 11.9596 31.9355C12.5476 31.9355 13.0261 32.414 13.0261 33.002C13.0261 33.59 12.5478 34.0685 11.9596 34.0685Z" fill="url(#paint2_linear_52_182)"/>
<path d="M52.0404 48.0967C50.4184 48.0967 49.0989 49.4163 49.0989 51.0382C49.0989 52.6601 50.4185 53.9797 52.0404 53.9797C53.6623 53.9797 54.9819 52.6601 54.9819 51.0382C54.9819 49.4163 53.6623 48.0967 52.0404 48.0967ZM52.0404 52.1048C51.4523 52.1048 50.9739 51.6263 50.9739 51.0383C50.9739 50.4502 51.4524 49.9718 52.0404 49.9718C52.6284 49.9718 53.1069 50.4502 53.1069 51.0383C53.1069 51.6263 52.6284 52.1048 52.0404 52.1048Z" fill="url(#paint3_linear_52_182)"/>
<path d="M52.0404 30.0605C50.4184 30.0605 49.0989 31.3802 49.0989 33.002C49.0989 34.6239 50.4185 35.9435 52.0404 35.9435C53.6623 35.9435 54.9819 34.6239 54.9819 33.002C54.9819 31.3802 53.6623 30.0605 52.0404 30.0605ZM52.0404 34.0685C51.4523 34.0685 50.9739 33.59 50.9739 33.002C50.9739 32.414 51.4524 31.9355 52.0404 31.9355C52.6284 31.9355 53.1069 32.414 53.1069 33.002C53.1069 33.59 52.6284 34.0685 52.0404 34.0685Z" fill="url(#paint4_linear_52_182)"/>
<path d="M30.3251 37.1342C29.8404 36.9522 29.2998 37.1981 29.1181 37.6829L26.6387 44.2947C26.4602 44.7709 25.9984 45.0907 25.4837 45.0907C24.9752 45.0907 24.5134 44.7709 24.3349 44.2947L21.8556 37.683C21.6738 37.1981 21.1332 36.9526 20.6486 37.1344C20.1638 37.3161 19.9181 37.8565 20.0999 38.3414L22.5793 44.9531C23.0307 46.157 24.1979 46.9659 25.4899 46.9659C26.7757 46.9659 27.9429 46.157 28.3943 44.9531L30.8737 38.3414C31.0556 37.8565 30.8098 37.316 30.3251 37.1342V37.1342Z" fill="url(#paint5_linear_52_182)"/>
<path d="M42.9577 40.0162C42.9577 38.3942 41.638 37.0747 40.0162 37.0747H34.004C33.4863 37.0747 33.0665 37.4945 33.0665 38.0122V46.0283C33.0665 46.5462 33.4863 46.9658 34.004 46.9658C34.5218 46.9658 34.9415 46.5462 34.9415 46.0283V38.9497H40.0162C40.6043 38.9497 41.0827 39.4282 41.0827 40.0162C41.0827 40.6043 40.6042 41.0827 40.0162 41.0827H38.0302C37.4809 41.0827 36.9897 41.431 36.8079 41.9493C36.6262 42.4676 36.7922 43.0463 37.221 43.3895L41.4345 46.7603C41.6074 46.8986 41.8142 46.966 42.0195 46.9658C42.2945 46.9658 42.567 46.8455 42.7522 46.614C43.0755 46.2097 43.01 45.6197 42.6058 45.2962L39.6827 42.9577H40.016C41.638 42.9577 42.9577 41.6381 42.9577 40.0162V40.0162Z" fill="url(#paint6_linear_52_182)"/>
<defs>
<linearGradient id="paint0_linear_52_182" x1="63.9999" y1="27.6858" x2="-1.81161e-08" y2="27.6858" gradientUnits="userSpaceOnUse">
<stop stop-color="#9281CE"/>
<stop offset="1" stop-color="#68DBFF"/>
</linearGradient>
<linearGradient id="paint1_linear_52_182" x1="14.9011" y1="50.6769" x2="9.01813" y2="50.6769" gradientUnits="userSpaceOnUse">
<stop stop-color="#9281CE"/>
<stop offset="1" stop-color="#68DBFF"/>
</linearGradient>
<linearGradient id="paint2_linear_52_182" x1="14.9011" y1="32.6408" x2="9.01813" y2="32.6408" gradientUnits="userSpaceOnUse">
<stop stop-color="#9281CE"/>
<stop offset="1" stop-color="#68DBFF"/>
</linearGradient>
<linearGradient id="paint3_linear_52_182" x1="54.9819" y1="50.6769" x2="49.0989" y2="50.6769" gradientUnits="userSpaceOnUse">
<stop stop-color="#9281CE"/>
<stop offset="1" stop-color="#68DBFF"/>
</linearGradient>
<linearGradient id="paint4_linear_52_182" x1="54.9819" y1="32.6408" x2="49.0989" y2="32.6408" gradientUnits="userSpaceOnUse">
<stop stop-color="#9281CE"/>
<stop offset="1" stop-color="#68DBFF"/>
</linearGradient>
<linearGradient id="paint5_linear_52_182" x1="30.9337" y1="41.4127" x2="20.04" y2="41.4127" gradientUnits="userSpaceOnUse">
<stop stop-color="#9281CE"/>
<stop offset="1" stop-color="#68DBFF"/>
</linearGradient>
<linearGradient id="paint6_linear_52_182" x1="42.9577" y1="41.4129" x2="33.0665" y2="41.4129" gradientUnits="userSpaceOnUse">
<stop stop-color="#9281CE"/>
<stop offset="1" stop-color="#68DBFF"/>
</linearGradient>
</defs>
</svg>
